<svg id="keys" width="450" height="150" viewBox="0 0 450 150" style="height: 150px; width: 450px; vertical-align: middle;"><path d="M0.75 0.75 L0.75 149.25 L449.25 149.25 L449.25 0.75 Z" stroke="black" stroke-width="1.5" fill="white"></path><path stroke="black" stroke-width="1.5" d="M32.142857142857146 0 L32.142857142857146 150"></path><path stroke="black" stroke-width="1.5" d="M64.28571428571429 0 L64.28571428571429 150"></path><path stroke="black" stroke-width="1.5" d="M96.42857142857144 0 L96.42857142857144 150"></path><path stroke="black" stroke-width="1.5" d="M128.57142857142858 0 L128.57142857142858 150"></path><path stroke="black" stroke-width="1.5" d="M160.71428571428572 0 L160.71428571428572 150"></path><path stroke="black" stroke-width="1.5" d="M192.85714285714286 0 L192.85714285714286 150"></path><path stroke="black" stroke-width="1.5" d="M225 0 L225 150"></path><path stroke="black" stroke-width="1.5" d="M257.14285714285717 0 L257.14285714285717 150"></path><path stroke="black" stroke-width="1.5" d="M289.28571428571433 0 L289.28571428571433 150"></path><path stroke="black" stroke-width="1.5" d="M321.4285714285715 0 L321.4285714285715 150"></path><path stroke="black" stroke-width="1.5" d="M353.57142857142867 0 L353.57142857142867 150"></path><path stroke="black" stroke-width="1.5" d="M385.71428571428584 0 L385.71428571428584 150"></path><path stroke="black" stroke-width="1.5" d="M417.857142857143 0 L417.857142857143 150"></path><path stroke="black" stroke-width="16.071428571428573" d="M32.142857142857146 0 L32.142857142857146 90"></path><path stroke="black" stroke-width="16.071428571428573" d="M64.28571428571429 0 L64.28571428571429 90"></path><path stroke="black" stroke-width="16.071428571428573" d="M128.57142857142858 0 L128.57142857142858 90"></path><path stroke="black" stroke-width="16.071428571428573" d="M160.71428571428572 0 L160.71428571428572 90"></path><path stroke="black" stroke-width="16.071428571428573" d="M192.85714285714286 0 L192.85714285714286 90"></path><path stroke="black" stroke-width="16.071428571428573" d="M257.14285714285717 0 L257.14285714285717 90"></path><path stroke="black" stroke-width="16.071428571428573" d="M289.28571428571433 0 L289.28571428571433 90"></path><path stroke="black" stroke-width="16.071428571428573" d="M353.5714285714286 0 L353.5714285714286 90"></path><path stroke="black" stroke-width="16.071428571428573" d="M385.7142857142858 0 L385.7142857142858 90"></path><path stroke="black" stroke-width="16.071428571428573" d="M417.85714285714295 0 L417.85714285714295 90"></path><circle fill="red" r="8.035714285714286" cx="16.071428571428573" cy="120" class="keymark"></circle><circle fill="red" r="8.035714285714286" cx="80.35714285714288" cy="120" class="keymark"></circle><circle fill="red" r="8.035714285714286" cx="144.64285714285714" cy="120" class="keymark"></circle></svg>